<svg height="384" viewBox="0 0 432 288" width="576" xmlns="http://www.w3.org/2000/svg" xmlns:xlink="http://www.w3.org/1999/xlink"><defs><style>*{stroke-linecap:butt;stroke-linejoin:round}</style></defs><g id="figure_1"><path d="M0 288h432V0H0z" fill="#fff" id="patch_1"/><g id="axes_1"><path d="M54 252h334.8V34.56H54z" fill="#fff" id="patch_2"/><g id="matplotlib.axis_1"><g id="xtick_1"><g id="line2d_1"><defs><path d="M0 0v3.5" id="m3827158a4c" stroke="#000" stroke-width=".8"/></defs><use x="69.218" xlink:href="#m3827158a4c" y="252" stroke="#000" stroke-width=".8"/></g><g id="text_1"><defs><path d="M31.781 66.406q-7.61 0-11.453-7.5Q16.5 51.422 16.5 36.375q0-14.984 3.828-22.484 3.844-7.5 11.453-7.5 7.672 0 11.5 7.5 3.844 7.5 3.844 22.484 0 15.047-3.844 22.531-3.828 7.5-11.5 7.5m0 7.813q12.266 0 18.735-9.703 6.468-9.688 6.468-28.141 0-18.406-6.468-28.11-6.47-9.687-18.735-9.687-12.25 0-18.718 9.688-6.47 9.703-6.47 28.109 0 18.453 6.47 28.14Q19.53 74.22 31.78 74.22" id="DejaVuSans-30"/><path d="M10.688 12.406H21V0H10.687z" id="DejaVuSans-2e"/></defs><g transform="matrix(.1 0 0 -.1 61.267 266.598)"><use xlink:href="#DejaVuSans-30"/><use x="63.623" xlink:href="#DejaVuSans-2e"/><use x="95.41" xlink:href="#DejaVuSans-30"/></g></g></g><g id="xtick_2"><use x="130.091" xlink:href="#m3827158a4c" y="252" stroke="#000" stroke-width=".8" id="line2d_2"/><g id="text_2"><defs><path d="M19.188 8.297h34.421V0H7.33v8.297q5.609 5.812 15.296 15.594 9.703 9.797 12.188 12.64 4.734 5.313 6.609 9 1.89 3.688 1.89 7.25 0 5.813-4.078 9.469-4.078 3.672-10.625 3.672-4.64 0-9.797-1.61-5.14-1.609-11-4.89v9.969Q13.767 71.78 18.938 73q5.188 1.219 9.485 1.219 11.328 0 18.062-5.672 6.735-5.656 6.735-15.125 0-4.5-1.688-8.531-1.672-4.016-6.125-9.485-1.218-1.422-7.765-8.187-6.532-6.766-18.453-18.922" id="DejaVuSans-32"/></defs><g transform="matrix(.1 0 0 -.1 122.14 266.598)"><use xlink:href="#DejaVuSans-30"/><use x="63.623" xlink:href="#DejaVuSans-2e"/><use x="95.41" xlink:href="#DejaVuSans-32"/></g></g></g><g id="xtick_3"><use x="190.964" xlink:href="#m3827158a4c" y="252" stroke="#000" stroke-width=".8" id="line2d_3"/><g id="text_3"><defs><path d="M37.797 64.313L12.89 25.39h24.906zm-2.594 8.593H47.61V25.391h10.407v-8.203H47.609V0h-9.812v17.188H4.89v9.515z" id="DejaVuSans-34"/></defs><g transform="matrix(.1 0 0 -.1 183.012 266.598)"><use xlink:href="#DejaVuSans-30"/><use x="63.623" xlink:href="#DejaVuSans-2e"/><use x="95.41" xlink:href="#DejaVuSans-34"/></g></g></g><g id="xtick_4"><use x="251.836" xlink:href="#m3827158a4c" y="252" stroke="#000" stroke-width=".8" id="line2d_4"/><g id="text_4"><defs><path d="M33.016 40.375q-6.641 0-10.532-4.547-3.875-4.531-3.875-12.437 0-7.86 3.875-12.438 3.891-4.562 10.532-4.562 6.64 0 10.515 4.562 3.875 4.578 3.875 12.438 0 7.906-3.875 12.437-3.875 4.547-10.515 4.547m19.578 30.922v-8.984q-3.719 1.75-7.5 2.671-3.782.938-7.5.938-9.766 0-14.922-6.594-5.14-6.594-5.875-19.922 2.875 4.25 7.219 6.516 4.359 2.266 9.578 2.266 10.984 0 17.36-6.672 6.374-6.657 6.374-18.125 0-11.235-6.64-18.032-6.641-6.78-17.672-6.78-12.657 0-19.344 9.687-6.688 9.703-6.688 28.109 0 17.281 8.204 27.563 8.203 10.28 22.015 10.28 3.719 0 7.5-.734t7.89-2.187" id="DejaVuSans-36"/></defs><g transform="matrix(.1 0 0 -.1 243.885 266.598)"><use xlink:href="#DejaVuSans-30"/><use x="63.623" xlink:href="#DejaVuSans-2e"/><use x="95.41" xlink:href="#DejaVuSans-36"/></g></g></g><g id="xtick_5"><use x="312.709" xlink:href="#m3827158a4c" y="252" stroke="#000" stroke-width=".8" id="line2d_5"/><g id="text_5"><defs><path d="M31.781 34.625q-7.031 0-11.062-3.766-4.016-3.765-4.016-10.343 0-6.594 4.016-10.36Q24.75 6.391 31.78 6.391q7.032 0 11.078 3.78 4.063 3.798 4.063 10.345 0 6.578-4.031 10.343-4.016 3.766-11.11 3.766m-9.86 4.188q-6.343 1.562-9.89 5.906Q8.5 49.079 8.5 55.329q0 8.733 6.219 13.812 6.234 5.078 17.062 5.078 10.89 0 17.094-5.078 6.203-5.079 6.203-13.813 0-6.25-3.547-10.61-3.531-4.343-9.828-5.906 7.125-1.656 11.094-6.5 3.984-4.828 3.984-11.796 0-10.61-6.468-16.282-6.47-5.656-18.532-5.656-12.047 0-18.531 5.656-6.469 5.672-6.469 16.282 0 6.968 4 11.797 4.016 4.843 11.14 6.5M18.314 54.39q0-5.657 3.53-8.828 3.548-3.172 9.938-3.172 6.36 0 9.938 3.172 3.593 3.171 3.593 8.828 0 5.672-3.593 8.843-3.578 3.172-9.938 3.172-6.39 0-9.937-3.172-3.532-3.172-3.532-8.843" id="DejaVuSans-38"/></defs><g transform="matrix(.1 0 0 -.1 304.758 266.598)"><use xlink:href="#DejaVuSans-30"/><use x="63.623" xlink:href="#DejaVuSans-2e"/><use x="95.41" xlink:href="#DejaVuSans-38"/></g></g></g><g id="xtick_6"><use x="373.582" xlink:href="#m3827158a4c" y="252" stroke="#000" stroke-width=".8" id="line2d_6"/><g id="text_6"><defs><path d="M12.406 8.297h16.11v55.625l-17.532-3.516v8.985l17.438 3.515h9.86V8.296H54.39V0H12.406z" id="DejaVuSans-31"/></defs><g transform="matrix(.1 0 0 -.1 365.63 266.598)"><use xlink:href="#DejaVuSans-31"/><use x="63.623" xlink:href="#DejaVuSans-2e"/><use x="95.41" xlink:href="#DejaVuSans-30"/></g></g></g></g><g id="matplotlib.axis_2"><g id="ytick_1"><g id="line2d_7"><defs><path d="M0 0h-3.5" id="m324db815c4" stroke="#000" stroke-width=".8"/></defs><use x="54" xlink:href="#m324db815c4" y="242.116" stroke="#000" stroke-width=".8"/></g><g transform="matrix(.1 0 0 -.1 18.372 245.916)" id="text_7"><use xlink:href="#DejaVuSans-30"/><use x="63.623" xlink:href="#DejaVuSans-2e"/><use x="95.41" xlink:href="#DejaVuSans-30"/><use x="159.033" xlink:href="#DejaVuSans-30"/><use x="222.656" xlink:href="#DejaVuSans-30"/></g></g><g id="ytick_2"><use x="54" xlink:href="#m324db815c4" y="216.438" stroke="#000" stroke-width=".8" id="line2d_8"/><g id="text_8"><defs><path d="M10.797 72.906h38.719v-8.312H19.828v-17.86q2.14.735 4.281 1.094 2.157.36 4.313.36 12.203 0 19.328-6.688 7.14-6.688 7.14-18.11 0-11.765-7.328-18.296-7.328-6.516-20.656-6.516-4.593 0-9.36.781-4.75.782-9.827 2.344v9.922q4.39-2.39 9.078-3.563 4.687-1.171 9.906-1.171 8.453 0 13.375 4.437 4.938 4.438 4.938 12.063 0 7.609-4.938 12.047-4.922 4.453-13.375 4.453-3.953 0-7.89-.875-3.922-.875-8.016-2.735z" id="DejaVuSans-35"/></defs><g transform="matrix(.1 0 0 -.1 18.372 220.237)"><use xlink:href="#DejaVuSans-30"/><use x="63.623" xlink:href="#DejaVuSans-2e"/><use x="95.41" xlink:href="#DejaVuSans-30"/><use x="159.033" xlink:href="#DejaVuSans-32"/><use x="222.656" xlink:href="#DejaVuSans-35"/></g></g></g><g id="ytick_3"><use x="54" xlink:href="#m324db815c4" y="190.759" stroke="#000" stroke-width=".8" id="line2d_9"/><g transform="matrix(.1 0 0 -.1 18.372 194.558)" id="text_9"><use xlink:href="#DejaVuSans-30"/><use x="63.623" xlink:href="#DejaVuSans-2e"/><use x="95.41" xlink:href="#DejaVuSans-30"/><use x="159.033" xlink:href="#DejaVuSans-35"/><use x="222.656" xlink:href="#DejaVuSans-30"/></g></g><g id="ytick_4"><use x="54" xlink:href="#m324db815c4" y="165.08" stroke="#000" stroke-width=".8" id="line2d_10"/><g id="text_10"><defs><path d="M8.203 72.906h46.875v-4.203L28.61 0H18.312L43.22 64.594H8.203z" id="DejaVuSans-37"/></defs><g transform="matrix(.1 0 0 -.1 18.372 168.88)"><use xlink:href="#DejaVuSans-30"/><use x="63.623" xlink:href="#DejaVuSans-2e"/><use x="95.41" xlink:href="#DejaVuSans-30"/><use x="159.033" xlink:href="#DejaVuSans-37"/><use x="222.656" xlink:href="#DejaVuSans-35"/></g></g></g><g id="ytick_5"><use x="54" xlink:href="#m324db815c4" y="139.401" stroke="#000" stroke-width=".8" id="line2d_11"/><g transform="matrix(.1 0 0 -.1 18.372 143.2)" id="text_11"><use xlink:href="#DejaVuSans-30"/><use x="63.623" xlink:href="#DejaVuSans-2e"/><use x="95.41" xlink:href="#DejaVuSans-31"/><use x="159.033" xlink:href="#DejaVuSans-30"/><use x="222.656" xlink:href="#DejaVuSans-30"/></g></g><g id="ytick_6"><use x="54" xlink:href="#m324db815c4" y="113.723" stroke="#000" stroke-width=".8" id="line2d_12"/><g transform="matrix(.1 0 0 -.1 18.372 117.522)" id="text_12"><use xlink:href="#DejaVuSans-30"/><use x="63.623" xlink:href="#DejaVuSans-2e"/><use x="95.41" xlink:href="#DejaVuSans-31"/><use x="159.033" xlink:href="#DejaVuSans-32"/><use x="222.656" xlink:href="#DejaVuSans-35"/></g></g><g id="ytick_7"><use x="54" xlink:href="#m324db815c4" y="88.044" stroke="#000" stroke-width=".8" id="line2d_13"/><g transform="matrix(.1 0 0 -.1 18.372 91.843)" id="text_13"><use xlink:href="#DejaVuSans-30"/><use x="63.623" xlink:href="#DejaVuSans-2e"/><use x="95.41" xlink:href="#DejaVuSans-31"/><use x="159.033" xlink:href="#DejaVuSans-35"/><use x="222.656" xlink:href="#DejaVuSans-30"/></g></g><g id="ytick_8"><use x="54" xlink:href="#m324db815c4" y="62.365" stroke="#000" stroke-width=".8" id="line2d_14"/><g transform="matrix(.1 0 0 -.1 18.372 66.164)" id="text_14"><use xlink:href="#DejaVuSans-30"/><use x="63.623" xlink:href="#DejaVuSans-2e"/><use x="95.41" xlink:href="#DejaVuSans-31"/><use x="159.033" xlink:href="#DejaVuSans-37"/><use x="222.656" xlink:href="#DejaVuSans-35"/></g></g><g id="ytick_9"><use x="54" xlink:href="#m324db815c4" y="36.686" stroke="#000" stroke-width=".8" id="line2d_15"/><g transform="matrix(.1 0 0 -.1 18.372 40.486)" id="text_15"><use xlink:href="#DejaVuSans-30"/><use x="63.623" xlink:href="#DejaVuSans-2e"/><use x="95.41" xlink:href="#DejaVuSans-32"/><use x="159.033" xlink:href="#DejaVuSans-30"/><use x="222.656" xlink:href="#DejaVuSans-30"/></g></g></g><path clip-path="url(#p6155da960c)" d="M69.218 242.116l3.075-20.126 3.074-18.893 3.074-17.687 3.075-16.506 3.074-15.35 3.074-14.218 3.075-13.114 3.074-12.034 3.075-10.98 3.074-9.95 3.074-8.948 3.075-7.969 3.074-7.016 3.075-6.09 3.074-5.186 3.074-4.31 3.075-3.46 3.074-2.634 3.074-1.834 3.075-1.058 3.074-.31 3.075.416 3.074 1.113 3.074 1.787 3.075 2.435 3.074 3.057 3.074 3.654 3.075 4.226 3.074 4.772 3.075 5.293 3.074 5.789 3.074 6.258 3.075 6.703 3.074 7.122 3.074 7.516 3.075 7.885 3.074 8.227 3.075 8.545 3.074 8.837 3.074 9.104 3.075 9.345 3.074 9.561 3.075 9.752 3.074 9.917 3.074 10.057 3.075 10.17 3.074 10.26 3.074 10.324 3.075 10.361h3.074l3.075-10.361 3.074-10.324 3.074-10.26 3.075-10.17 3.074-10.057 3.074-9.917 3.075-9.752 3.074-9.56 3.075-9.346 3.074-9.104 3.074-8.837 3.075-8.545 3.074-8.227 3.075-7.885 3.074-7.516 3.074-7.122 3.075-6.703 3.074-6.258 3.074-5.789 3.075-5.293 3.074-4.772 3.075-4.226 3.074-3.654 3.074-3.057 3.075-2.435 3.074-1.787 3.074-1.113 3.075-.415 3.074.309 3.075 1.058 3.074 1.834 3.074 2.634 3.075 3.46 3.074 4.31 3.074 5.187 3.075 6.089 3.074 7.016 3.075 7.97 3.074 8.946 3.074 9.951 3.075 10.98 3.074 12.034 3.075 13.114 3.074 14.219 3.074 15.35 3.075 16.505 3.074 17.687 3.074 18.893 3.075 20.126" fill="none" stroke="#1f77b4" stroke-linecap="square" stroke-width="1.5" id="line2d_16"/><path d="M54 252V34.56" fill="none" stroke="#000" stroke-linecap="square" stroke-width=".8" id="patch_3"/><path d="M388.8 252V34.56" fill="none" stroke="#000" stroke-linecap="square" stroke-width=".8" id="patch_4"/><path d="M54 252h334.8" fill="none" stroke="#000" stroke-linecap="square" stroke-width=".8" id="patch_5"/><path d="M54 34.56h334.8" fill="none" stroke="#000" stroke-linecap="square" stroke-width=".8" id="patch_6"/><g id="legend_1"><path d="M164.25 57.66h114.3q2 0 2-2v-14.1q0-2-2-2h-114.3q-2 0-2 2v14.1q0 2 2 2z" fill="#fff" opacity=".8" stroke="#ccc" id="patch_7"/><path d="M166.25 47.76h20" fill="none" stroke="#1f77b4" stroke-linecap="square" stroke-width="1.5" id="line2d_17"/><g id="text_16"><defs><path d="M60.016 54.688l-25.11-26.813L50.296 0H39.985L28.422 21.688 8.297 0h-10.89l26.905 28.813-14.296 25.875h10.296l10.5-19.782 18.313 19.782z" id="DejaVuSans-Oblique-78"/><path d="M31 75.875q-6.531-11.219-9.719-22.219-3.172-10.984-3.172-22.265 0-11.266 3.203-22.328Q24.517-2 31-13.188h-7.813Q15.875-1.704 12.235 9.375q-3.64 11.078-3.64 22.016 0 10.89 3.61 21.922 3.624 11.046 10.983 22.562z" id="DejaVuSans-28"/><path d="M10.594 35.5h62.593v-8.297H10.594z" id="DejaVuSans-2212"/><path d="M8.016 75.875h7.812q7.313-11.516 10.953-22.563 3.64-11.03 3.64-21.921 0-10.938-3.64-22.016-3.64-11.078-10.953-22.563H8.016Q14.5-2 17.703 9.063q3.203 11.063 3.203 22.329 0 11.28-3.203 22.265-3.203 11-9.687 22.219" id="DejaVuSans-29"/><path d="M21 76.422v-100h-8.297v100z" id="DejaVuSans-7c"/></defs><g transform="matrix(.1 0 0 -.1 194.25 51.26)"><use transform="translate(0 .578)" xlink:href="#DejaVuSans-32"/><use transform="translate(63.623 .578)" xlink:href="#DejaVuSans-Oblique-78"/><use transform="translate(122.803 .578)" xlink:href="#DejaVuSans-28"/><use transform="translate(161.816 .578)" xlink:href="#DejaVuSans-31"/><use transform="translate(244.922 .578)" xlink:href="#DejaVuSans-2212"/><use transform="translate(348.193 .578)" xlink:href="#DejaVuSans-Oblique-78"/><use transform="translate(407.373 .578)" xlink:href="#DejaVuSans-29"/><use transform="translate(446.387 .578)" xlink:href="#DejaVuSans-7c"/><use transform="translate(480.078 .578)" xlink:href="#DejaVuSans-31"/><use transform="translate(563.184 .578)" xlink:href="#DejaVuSans-2212"/><use transform="translate(666.455 .578)" xlink:href="#DejaVuSans-32"/><use transform="translate(730.078 .578)" xlink:href="#DejaVuSans-Oblique-78"/><use transform="translate(789.258 .578)" xlink:href="#DejaVuSans-7c"/></g></g></g></g></g><defs><clipPath id="p6155da960c"><path d="M54 34.56h334.8V252H54z"/></clipPath></defs></svg>