<?xml version="1.0" standalone="no"?>
<!DOCTYPE svg PUBLIC "-//W3C//DTD SVG 20010904//EN"
 "http://www.w3.org/TR/2001/REC-SVG-20010904/DTD/svg10.dtd">
<svg version="1.0" xmlns="http://www.w3.org/2000/svg"
 width="1600.000000pt" height="1600.000000pt" viewBox="0 0 1600.000000 1600.000000"
 preserveAspectRatio="xMidYMid meet">
<metadata>
Created by potrace 1.11, written by Peter Selinger 2001-2013
</metadata>
<g transform="translate(0.000000,1600.000000) scale(0.100000,-0.100000)"
fill="#000000" stroke="none">
<path d="M7070 13318 c74 -222 109 -313 163 -428 41 -87 123 -204 137 -195 20
13 1 114 -41 216 -23 57 -46 109 -50 114 -31 44 -169 427 -169 471 0 22 -4 24
-54 24 l-55 0 69 -202z"/>
<path d="M7510 12630 c5 -17 9 -34 10 -38 2 -20 26 -99 61 -204 21 -64 39
-122 39 -130 0 -8 -10 -24 -22 -35 -13 -11 -64 -62 -113 -114 -248 -257 -323
-368 -410 -598 -43 -114 -92 -209 -143 -276 -35 -46 -42 -50 -113 -68 -71 -17
-76 -21 -88 -53 -7 -19 -15 -47 -17 -62 -5 -25 -10 -47 -32 -132 -20 -77 -62
-124 -242 -270 -30 -25 -57 -47 -60 -50 -3 -3 -45 -39 -95 -80 -130 -108 -147
-124 -271 -245 -129 -128 -187 -200 -274 -345 -35 -58 -86 -138 -113 -179 -57
-85 -68 -138 -28 -133 28 4 144 60 213 102 26 16 91 52 145 80 196 103 276
153 396 247 132 102 183 129 357 183 193 60 290 113 311 168 6 14 10 95 10
178 l-1 153 37 30 c21 17 62 43 93 57 30 15 56 28 58 29 7 5 140 403 152 452
7 32 40 97 82 165 39 62 89 147 111 188 37 68 135 198 193 258 31 32 74 127
74 163 0 17 -20 68 -47 117 -90 169 -122 237 -144 306 -23 77 -55 147 -73 158
-6 4 -23 8 -38 8 -25 0 -26 -2 -18 -30z"/>
<path d="M8489 11985 c-14 -13 27 -239 52 -284 17 -32 88 -237 92 -266 5 -35
-15 -80 -49 -112 -13 -12 -72 -55 -131 -95 -80 -54 -158 -123 -308 -270 -266
-263 -313 -330 -410 -595 l-38 -103 -51 0 c-86 -1 -134 -30 -296 -180 -59 -55
-100 -87 -255 -200 -139 -102 -244 -187 -284 -229 -57 -59 -118 -162 -204
-344 -165 -344 -167 -347 -382 -453 -82 -41 -158 -82 -168 -92 -10 -9 -37 -48
-59 -87 -50 -85 -92 -126 -155 -150 -75 -28 -222 -100 -304 -147 -114 -68
-246 -116 -364 -135 -30 -5 -256 -51 -285 -58 -183 -46 -487 -252 -618 -418
-43 -54 -202 -288 -244 -357 -20 -34 -48 -118 -48 -147 0 -17 6 -23 23 -23 43
0 153 31 351 99 307 105 303 103 507 238 165 108 219 134 370 178 213 62 645
211 753 260 17 7 80 34 139 59 135 57 147 66 277 196 93 93 113 108 170 128
71 26 77 28 165 67 122 54 162 104 274 350 148 323 214 430 342 550 95 90 128
112 235 160 111 50 146 77 198 155 47 69 75 99 163 177 80 71 105 114 179 308
45 117 100 228 152 310 66 101 275 316 457 470 72 60 196 145 213 145 17 0 80
-84 239 -322 168 -250 243 -355 289 -403 16 -16 83 -93 148 -170 108 -127 306
-332 381 -395 67 -56 160 -135 165 -140 3 -3 50 -41 105 -85 55 -43 105 -84
111 -90 6 -5 37 -30 67 -55 63 -51 70 -63 30 -54 -95 20 -159 57 -381 223
-191 143 -305 249 -618 577 -214 224 -300 307 -387 373 -72 54 -214 128 -225
117 -9 -10 33 -90 90 -168 29 -40 55 -75 58 -78 3 -3 25 -30 50 -60 25 -30 49
-60 55 -66 18 -20 38 -47 123 -156 46 -59 88 -113 95 -120 7 -7 39 -44 72 -83
121 -141 345 -358 516 -500 49 -41 357 -283 436 -343 76 -57 267 -182 280
-182 3 0 17 -8 31 -19 15 -10 54 -33 87 -51 33 -18 148 -84 256 -146 234 -134
703 -376 782 -403 88 -31 189 -44 414 -56 111 -6 135 -13 263 -73 150 -70 203
-93 310 -137 111 -46 344 -125 366 -125 7 0 33 -6 56 -14 24 -7 70 -21 103
-31 33 -9 163 -50 289 -91 210 -69 279 -90 376 -115 19 -5 104 -20 188 -34
159 -27 205 -41 199 -59 -4 -12 -115 -55 -162 -63 -81 -14 -224 -56 -286 -84
-71 -33 -104 -58 -78 -60 20 -2 17 -2 94 6 153 17 207 4 144 -35 -36 -22 -203
-76 -414 -135 -93 -26 -168 -55 -265 -104 -76 -38 -251 -111 -400 -166 -146
-53 -274 -101 -285 -106 -11 -5 -40 -16 -65 -24 -38 -14 -140 -70 -228 -127
-87 -56 -154 -80 -257 -93 -41 -4 -69 -18 -124 -60 -53 -41 -130 -75 -169 -75
-9 0 -58 -20 -107 -45 -93 -46 -105 -50 -190 -60 -102 -12 -144 -28 -317 -115
-97 -49 -200 -99 -229 -110 -29 -12 -72 -30 -95 -41 -24 -10 -45 -19 -47 -19
-3 0 -56 -24 -118 -53 -136 -63 -211 -95 -424 -178 -88 -34 -173 -68 -190 -75
-16 -7 -54 -22 -83 -33 -66 -26 -141 -64 -215 -108 l-59 -36 21 -20 c33 -34
104 -27 266 27 140 46 306 91 378 101 20 3 54 7 75 10 184 27 340 67 349 91 3
9 -7 29 -26 48 l-32 33 128 58 c132 59 176 77 252 101 52 17 52 10 -10 -71
-45 -60 -46 -54 19 -108 19 -15 37 -25 42 -22 4 2 10 22 14 44 3 22 9 42 14
44 4 3 54 8 112 12 138 8 166 12 225 32 54 17 189 75 300 128 39 18 99 45 135
60 64 27 104 45 198 86 183 83 274 119 482 191 79 28 194 72 255 98 154 67
193 82 540 205 136 48 302 103 368 121 9 3 17 3 17 0 0 -18 -203 -129 -424
-231 -54 -25 -130 -61 -170 -80 -97 -47 -159 -65 -460 -130 -46 -10 -33 -26
31 -36 103 -15 159 -2 328 76 75 35 472 194 524 210 13 4 91 38 174 76 82 38
154 69 159 69 10 0 246 117 320 158 34 20 170 69 210 77 26 5 149 72 181 98
l27 22 -30 32 c-16 18 -30 34 -30 37 0 10 151 78 264 118 61 22 183 60 270 84
180 51 249 77 426 162 69 32 144 65 165 73 22 7 45 16 50 20 6 3 22 9 38 13
l27 6 0 498 0 498 -667 0 c-608 0 -892 6 -913 19 -4 2 -29 7 -56 10 -27 3 -58
7 -69 9 -12 2 -48 7 -80 11 -61 7 -75 9 -180 20 -327 36 -672 121 -925 230
-99 42 -297 146 -356 186 -53 36 -132 61 -180 57 -39 -3 -39 -3 -37 -42 6 -85
92 -180 260 -286 173 -108 413 -251 588 -347 94 -52 181 -103 195 -114 l25
-21 -115 6 c-63 3 -126 8 -140 11 -40 8 -253 47 -275 50 -11 1 -65 10 -120 19
-55 10 -111 19 -125 22 -14 2 -72 13 -130 24 -58 11 -118 23 -135 26 -16 3
-61 12 -100 21 -38 8 -81 17 -95 19 -98 19 -244 63 -350 106 -69 28 -204 82
-300 120 -260 103 -310 131 -515 283 -33 25 -67 48 -75 52 -8 3 -23 13 -33 21
-9 8 -26 20 -37 26 -45 25 -284 175 -402 253 -111 73 -374 264 -388 282 -3 3
-75 68 -160 143 -168 147 -200 179 -366 368 -214 244 -285 335 -449 573 -100
147 -139 190 -246 270 -83 62 -98 82 -185 232 -31 55 -88 145 -126 201 -37 55
-86 143 -109 194 -78 181 -127 269 -140 255z"/>
<path d="M6854 8448 c-16 -13 -56 -45 -89 -73 -33 -28 -89 -68 -125 -89 -86
-52 -89 -55 -79 -118 18 -111 101 -222 231 -307 101 -67 113 -68 263 -31 72
18 146 41 165 50 97 50 150 182 146 369 l-1 75 -35 12 c-101 35 -389 124 -416
128 -23 4 -39 0 -60 -16z"/>
<path d="M5360 6382 c0 -13 70 -114 117 -170 24 -28 78 -76 118 -105 42 -29
76 -62 80 -74 3 -12 2 -57 -2 -100 -9 -99 -9 -181 2 -263 20 -157 5 -298 -44
-400 -40 -86 -183 -260 -399 -489 -201 -212 -209 -221 -285 -321 -77 -101
-195 -290 -226 -362 -11 -24 -22 -68 -25 -98 -4 -30 -9 -75 -12 -100 -3 -25
-29 -92 -58 -150 -47 -96 -51 -111 -51 -175 0 -62 5 -78 38 -140 21 -38 53
-88 71 -109 l34 -39 47 29 c80 49 88 66 91 194 l2 111 42 54 c27 35 54 88 74
147 51 145 76 182 168 244 54 36 230 168 373 278 61 47 148 107 195 133 110
62 184 118 251 191 158 170 195 257 187 439 -4 99 -3 96 -118 308 l-33 60 33
105 c57 178 53 229 -24 314 -123 135 -172 181 -297 273 -252 186 -349 246
-349 215z"/>
<path d="M12570 6249 c-141 -44 -412 -167 -495 -224 -167 -114 63 -40 390 126
94 48 215 117 215 123 0 7 -33 0 -110 -25z"/>
<path d="M3480 6219 c0 -8 21 -50 46 -94 89 -159 97 -180 91 -254 -7 -86 -35
-169 -107 -312 -68 -136 -125 -232 -183 -309 -50 -65 -244 -262 -340 -344 -37
-32 -70 -68 -73 -80 -8 -33 -13 -77 -13 -128 -1 -35 -6 -53 -21 -65 -114 -99
-121 -114 -145 -297 -12 -100 -60 -160 -190 -238 -93 -57 -131 -85 -264 -202
-163 -141 -174 -156 -393 -531 -77 -132 -179 -307 -228 -388 -84 -141 -178
-342 -203 -435 -10 -36 -9 -47 6 -75 40 -74 107 -80 287 -24 63 19 198 58 300
87 269 74 363 107 475 162 135 67 452 260 501 304 l39 35 -46 -4 c-29 -3 -101
-30 -205 -80 -189 -89 -207 -96 -579 -231 -159 -58 -339 -126 -400 -151 -60
-26 -135 -58 -165 -70 -65 -28 -101 -36 -130 -28 l-21 6 23 24 c13 14 64 57
113 96 164 130 190 162 300 357 57 102 95 139 197 190 59 29 99 41 169 51 88
12 93 14 128 53 126 140 271 267 348 305 26 13 56 28 65 32 10 5 24 9 32 9 9
0 40 9 71 21 69 26 174 121 206 185 28 58 23 122 -19 252 -16 50 -27 93 -23
94 3 1 46 2 95 2 l90 1 12 50 c6 28 15 62 18 77 4 17 28 44 69 74 55 43 133
104 372 294 38 30 110 96 160 145 208 206 231 260 250 583 2 46 7 87 10 91 2
5 58 -7 122 -26 184 -54 315 -90 348 -97 118 -24 170 -30 270 -29 107 1 245
28 288 57 17 12 34 35 39 51 8 28 4 34 -52 86 -155 145 -425 223 -850 244
-249 13 -266 16 -317 57 -33 27 -192 186 -246 246 -42 48 -90 80 -197 133 -92
46 -130 57 -130 38z"/>
<path d="M10990 5753 c0 -24 22 -83 32 -83 17 0 87 42 92 56 3 7 -3 15 -12 18
-33 11 -112 17 -112 9z"/>
<path d="M9371 5509 c-52 -26 -117 -58 -144 -69 l-51 -22 54 -25 c61 -28 54
-30 198 55 62 38 72 47 66 65 -13 46 -25 45 -123 -4z"/>
<path d="M6575 3874 c-38 -14 -126 -45 -195 -69 -69 -23 -148 -54 -176 -68
-27 -14 -63 -27 -79 -30 -45 -8 -382 -122 -537 -183 -146 -56 -196 -72 -256
-80 -36 -4 -62 -9 -112 -18 -14 -3 -41 -8 -62 -10 -107 -16 -295 -115 -327
-173 -10 -19 -8 -24 11 -37 80 -52 157 -54 340 -7 62 16 129 32 148 35 93 14
153 32 241 71 53 24 143 59 201 78 117 39 177 67 198 92 41 49 346 219 433
240 15 4 30 11 33 16 3 5 12 9 20 9 27 0 163 72 177 94 16 25 28 66 19 66 -4
-1 -38 -12 -77 -26z"/>
</g>
</svg>
